<svg width="13" height="17" viewBox="0 0 13 17" fill="none" xmlns="http://www.w3.org/2000/svg">
<path d="M12.0788 4.23115C12.0183 4.00435 11.8954 3.7627 11.8045 3.55113C10.7167 0.936906 8.33993 1.90735e-05 6.42078 1.90735e-05C3.85165 1.90735e-05 1.02206 1.72273 0.644287 5.27364V5.99911C0.644287 6.02939 0.654722 6.30136 0.669543 6.4374C0.881315 8.12967 2.21665 9.92819 3.21393 11.6205C4.28686 13.4336 5.40018 15.2172 6.50319 17C7.18332 15.8365 7.86101 14.6578 8.52565 13.5245C8.70679 13.1919 8.91706 12.8595 9.0984 12.542C9.21926 12.3306 9.45017 12.1193 9.55566 11.9226C10.6285 9.95827 12.3555 7.97877 12.3555 6.02935V5.2285C12.3555 5.01717 12.0936 4.27672 12.0788 4.23115ZM6.46781 7.873C5.71262 7.873 4.88601 7.49539 4.478 6.45254C4.41721 6.28653 4.42211 5.95386 4.42211 5.92338V5.45494C4.42211 4.1255 5.55093 3.52093 6.53295 3.52093C7.74192 3.52093 8.67695 4.48817 8.67695 5.69715C8.67695 6.90608 7.67678 7.873 6.46781 7.873Z" fill="white"/>
</svg>
